<svg width="69" height="69" viewBox="0 0 69 69" fill="none" xmlns="http://www.w3.org/2000/svg">
<mask id="mask0_17_483" style="mask-type:alpha" maskUnits="userSpaceOnUse" x="0" y="0" width="69" height="69">
<rect x="0.554688" y="0.600098" width="68.2667" height="68.2667" fill="#D9D9D9"/>
</mask>
<g mask="url(#mask0_17_483)">
<path d="M24.3779 57.3823V47.8534H11.8268C10.9972 47.8534 10.3868 47.486 9.99567 46.7512C9.60456 46.0164 9.64604 45.3053 10.1201 44.6179L19.3646 30.929H17.7646C16.9349 30.929 16.3186 30.5616 15.9157 29.8268C15.5127 29.0919 15.5601 28.3808 16.0579 27.6934L24.449 15.5334C24.852 14.9408 25.4209 14.6445 26.1557 14.6445C26.8905 14.6445 27.4594 14.9408 27.8623 15.5334L34.689 25.3468L41.5157 15.5334C41.9186 14.9408 42.4875 14.6445 43.2223 14.6445C43.9572 14.6445 44.526 14.9408 44.929 15.5334L53.3557 27.6934C53.8297 28.3808 53.8653 29.0919 53.4623 29.8268C53.0594 30.5616 52.4549 30.929 51.649 30.929H50.0135L59.2935 44.6179C59.7438 45.3053 59.7735 46.0164 59.3823 46.7512C58.9912 47.486 58.3927 47.8534 57.5868 47.8534H45.0001V57.0979C45.0001 57.6905 44.8046 58.1823 44.4135 58.5734C44.0223 58.9645 43.5423 59.1601 42.9735 59.1601H43.2223C42.7246 59.1601 42.3038 58.9882 41.9601 58.6445C41.6164 58.3008 41.4446 57.8801 41.4446 57.3823V47.8534H27.9335V57.0979C27.9335 57.6905 27.7379 58.1823 27.3468 58.5734C26.9557 58.9645 26.4757 59.1601 25.9068 59.1601H26.1557C25.6579 59.1601 25.2372 58.9882 24.8935 58.6445C24.5497 58.3008 24.3779 57.8801 24.3779 57.3823ZM43.0801 46.0401H57.9779L46.6001 29.1156H52.1112L43.2223 16.4223L35.8623 26.9468L36.3601 27.6934C36.8105 28.3808 36.8401 29.0919 36.449 29.8268C36.0579 30.5616 35.4594 30.929 34.6535 30.929H32.9468L43.0801 46.0401ZM11.4001 46.0401H40.9112L29.5335 29.1156H35.0446L26.1557 16.4223L17.2668 29.1156H22.8135L11.4001 46.0401ZM11.4001 46.0401H22.8135H17.2668H35.0446H29.5335H40.9112H11.4001ZM43.0801 46.0401H32.9468H38.5646H35.8623H52.1112H46.6001H57.9779H43.0801Z" fill="#C290FF"/>
</g>
</svg>
