<svg width="69" height="69" viewBox="0 0 69 69" fill="none" xmlns="http://www.w3.org/2000/svg">
<mask id="mask0_17_472" style="mask-type:alpha" maskUnits="userSpaceOnUse" x="0" y="0" width="69" height="69">
<rect x="0.0224609" y="0.600098" width="68.2667" height="68.2667" fill="#D9D9D9"/>
</mask>
<g mask="url(#mask0_17_472)">
<path d="M31.7378 56.4932V47.1065H29.889C26.4657 47.1065 23.5477 45.9 21.1352 43.487C18.7221 41.0744 17.5156 38.1565 17.5156 34.7332C17.5156 32.1827 18.2623 29.8621 19.7556 27.7714C21.249 25.6808 23.2045 24.1614 25.6223 23.2132C25.6223 21.1747 26.4519 19.6102 28.1112 18.5199C29.7704 17.4295 31.5008 17.2873 33.3023 18.0932L32.0223 14.6799C31.7853 14.1238 31.7971 13.5935 32.0578 13.0891C32.3186 12.5852 32.7334 12.2147 33.3023 11.9777L34.0134 11.6932L33.5156 10.3421C33.3734 9.96284 33.3826 9.59638 33.5434 9.24272C33.7036 8.88953 33.9788 8.6397 34.369 8.49321C34.7482 8.35099 35.1199 8.35952 35.484 8.51881C35.8476 8.6781 36.0922 8.95401 36.2178 9.34654L36.7156 10.6977L37.1423 10.5554C37.6638 10.3658 38.1853 10.4014 38.7067 10.6621C39.2282 10.9228 39.6075 11.3139 39.8445 11.8354L45.249 26.5554C45.486 27.0769 45.4741 27.5984 45.2134 28.1199C44.9527 28.6414 44.5615 29.0206 44.0401 29.2577L43.5423 29.471L44.0401 30.8221C44.1823 31.2014 44.173 31.5688 44.0123 31.9243C43.8521 32.2799 43.5769 32.5288 43.1867 32.671C42.8075 32.8132 42.4358 32.8047 42.0717 32.6454C41.7081 32.4861 41.4635 32.2102 41.3378 31.8177L40.8401 30.4665L40.2712 30.751C39.7023 30.988 39.1412 30.9793 38.588 30.7247C38.0352 30.4706 37.6481 30.0527 37.4267 29.471L36.289 26.1999C35.7675 27.0532 35.0682 27.7406 34.1912 28.2621C33.3141 28.7836 32.3541 29.0443 31.3112 29.0443C30.0786 29.0443 28.9764 28.6888 28.0045 27.9777C27.0327 27.2665 26.3334 26.3421 25.9067 25.2043C23.963 26.0102 22.4104 27.2665 21.249 28.9732C20.0875 30.6799 19.5067 32.5999 19.5067 34.7332C19.5067 37.617 20.516 40.0684 22.5346 42.0875C24.5537 44.1061 27.0052 45.1154 29.889 45.1154H49.8001C50.0821 45.1154 50.3185 45.2112 50.509 45.4027C50.7001 45.5938 50.7956 45.8308 50.7956 46.1138C50.7956 46.3964 50.7001 46.6325 50.509 46.8221C50.3185 47.0117 50.0821 47.1065 49.8001 47.1065H33.729V56.4932H49.8001C50.0821 56.4932 50.3185 56.589 50.509 56.7805C50.7001 56.9715 50.7956 57.2086 50.7956 57.4916C50.7956 57.7742 50.7001 58.0102 50.509 58.1999C50.3185 58.3895 50.0821 58.4843 49.8001 58.4843H18.5112C18.2291 58.4843 17.9925 58.3886 17.8015 58.197C17.6109 58.006 17.5156 57.7689 17.5156 57.4859C17.5156 57.2034 17.6109 56.9673 17.8015 56.7777C17.9925 56.588 18.2291 56.4932 18.5112 56.4932H31.7378ZM39.4178 28.9021L43.4001 27.3377L37.9956 12.4043L33.8712 13.8265L39.4178 28.9021ZM31.3062 27.0532C32.3525 27.0532 33.2312 26.6993 33.9423 25.9915C34.6534 25.2837 35.009 24.4067 35.009 23.3604C35.009 22.3141 34.6551 21.4354 33.9473 20.7243C33.2395 20.0132 32.3624 19.6577 31.3162 19.6577C30.2699 19.6577 29.3912 20.0115 28.6801 20.7193C27.969 21.4271 27.6134 22.3042 27.6134 23.3505C27.6134 24.3967 27.9673 25.2754 28.6751 25.9865C29.3829 26.6977 30.2599 27.0532 31.3062 27.0532Z" fill="#C290FF"/>
</g>
</svg>
