<svg width="69" height="69" viewBox="0 0 69 69" fill="none" xmlns="http://www.w3.org/2000/svg">
<mask id="mask0_17_460" style="mask-type:alpha" maskUnits="userSpaceOnUse" x="0" y="0" width="69" height="69">
<rect width="68.2667" height="68.2667" fill="#D9D9D9"/>
</mask>
<g mask="url(#mask0_17_460)">
<path d="M31.942 29.1205C32.692 29.1205 33.3396 28.8496 33.8848 28.3077C34.4299 27.7663 34.7025 27.1204 34.7025 26.3699C34.7025 25.6199 34.4257 24.9723 33.872 24.4272C33.3187 23.882 32.6669 23.6094 31.9164 23.6094C31.1664 23.6094 30.5248 23.8862 29.9914 24.44C29.4581 24.9932 29.1914 25.6451 29.1914 26.3955C29.1914 27.1455 29.4624 27.7872 30.0042 28.3205C30.5456 28.8538 31.1915 29.1205 31.942 29.1205ZM58 59.4494C56.7854 59.4494 54.667 58.5842 51.6448 56.8538C48.6225 55.1235 45.3574 52.9664 41.8492 50.3827C40.664 50.9516 39.4155 51.3783 38.1038 51.6627C36.7925 51.9472 35.4454 52.0894 34.0625 52.0894C29.0625 52.0894 24.8318 50.359 21.3706 46.8983C17.9089 43.438 16.1781 39.2086 16.1781 34.2099C16.1781 32.8161 16.3144 31.4515 16.587 30.1161C16.8596 28.7811 17.2922 27.5248 17.8848 26.3472C15.3485 22.9101 13.2507 19.722 11.5914 16.7827C9.93217 13.8435 9.10254 11.7765 9.10254 10.5818C9.10254 10.1646 9.20328 9.82568 9.40476 9.56494C9.60624 9.3042 9.87291 9.17383 10.2048 9.17383C10.9396 9.17383 12.4981 9.76642 14.8803 10.9516C17.2625 12.1368 19.7574 13.559 22.3648 15.2183C22.0623 15.3757 21.7731 15.547 21.4972 15.7324C21.2208 15.9178 20.9411 16.1019 20.6581 16.2849C18.9514 15.2657 17.2803 14.3116 15.6448 13.4227C14.0092 12.5338 12.3855 11.7101 10.7737 10.9516C11.8877 13.3931 13.1085 15.7575 14.4359 18.0449C15.7633 20.3323 17.2092 22.5901 18.7737 24.8183C20.3855 22.2583 22.5188 20.1842 25.1737 18.5961C27.8285 17.0079 30.7914 16.2138 34.0625 16.2138C39.0745 16.2138 43.3259 17.9594 46.817 21.4505C50.3081 24.9415 52.0536 29.193 52.0536 34.2049C52.0536 37.4851 51.2655 40.4679 49.6892 43.1536C48.1129 45.8397 46.0329 47.9768 43.4492 49.5649C45.7139 51.173 48.0162 52.6535 50.3562 54.0065C52.6967 55.3596 55.1114 56.6168 57.6003 57.7783C56.8181 56.1664 55.9885 54.5427 55.1114 52.9072C54.2344 51.2716 53.2981 49.6005 52.3025 47.8938C52.5102 47.6393 52.7102 47.3681 52.9027 47.0803C53.0952 46.793 53.2744 46.4953 53.4403 46.1872C55.0285 48.7235 56.4151 51.2036 57.6003 53.6275C58.7855 56.0515 59.3781 57.6247 59.3781 58.3472C59.3781 58.6435 59.2646 58.9011 59.0375 59.1201C58.8099 59.3396 58.4641 59.4494 58 59.4494ZM39.0417 41.6361C39.5149 41.6361 39.9292 41.4637 40.2848 41.1191C40.6403 40.7744 40.8181 40.3655 40.8181 39.8924C40.8181 39.4193 40.6434 39.0049 40.294 38.6494C39.9446 38.2938 39.5298 38.1161 39.0496 38.1161C38.5693 38.1161 38.1574 38.2907 37.8137 38.6401C37.4699 38.9895 37.2981 39.4043 37.2981 39.8846C37.2981 40.3648 37.4704 40.7768 37.8151 41.1205C38.1597 41.4642 38.5686 41.6361 39.0417 41.6361ZM42.6577 32.3205C43.138 32.3205 43.5559 32.1517 43.9114 31.8142C44.267 31.4766 44.4448 31.0678 44.4448 30.5875C44.4448 30.1073 44.2701 29.6894 43.9207 29.3338C43.5713 28.9783 43.1565 28.8005 42.6762 28.8005C42.196 28.8005 41.784 28.9752 41.4403 29.3246C41.0966 29.674 40.9248 30.0888 40.9248 30.569C40.9248 31.0493 41.0935 31.4612 41.4311 31.8049C41.7686 32.1486 42.1775 32.3205 42.6577 32.3205ZM40.1781 49.1383C36.1011 46.1042 32.3322 42.8509 28.8714 39.3783C25.4107 35.9057 22.1633 32.1309 19.1292 28.0538C18.7262 29.0494 18.4359 30.0094 18.2581 30.9338C18.0803 31.8583 17.9914 32.8657 17.9914 33.9561C17.9426 36.1358 18.3565 38.2595 19.233 40.3269C20.1096 42.3939 21.3076 44.1576 22.827 45.6183C24.3203 47.0879 26.0685 48.2435 28.0714 49.0849C30.0744 49.9264 32.1662 50.3235 34.347 50.2761C35.2951 50.2761 36.267 50.1872 37.2625 50.0094C38.2581 49.8316 39.2299 49.5412 40.1781 49.1383ZM41.7425 48.2849C44.2788 46.9101 46.3292 44.9712 47.8937 42.4681C49.4581 39.9649 50.2403 37.185 50.2403 34.1281C50.2403 29.6519 48.6598 25.8494 45.4986 22.7205C42.337 19.5916 38.5214 18.0272 34.0519 18.0272C30.996 18.0272 28.231 18.7975 25.7568 20.3383C23.2821 21.879 21.3574 23.9057 19.9825 26.4183C23.0166 30.6138 26.3588 34.5368 30.0092 38.1872C33.6596 41.8375 37.5707 45.2035 41.7425 48.2849Z" fill="#C290FF"/>
</g>
</svg>
