<svg width="71" height="43" viewBox="0 0 71 43" fill="none" xmlns="http://www.w3.org/2000/svg">
<path d="M3.30835 18.9431C4.31851 18.9431 5.09404 19.1224 5.63497 19.4808C6.17589 19.8327 6.44635 20.4127 6.44635 21.2209C6.44635 22.0355 6.17263 22.6253 5.62519 22.9903C5.07775 23.3487 4.2957 23.5279 3.27902 23.5279H2.80001V25.7959H1.27501V19.1191C1.60738 19.0539 1.9593 19.0083 2.33078 18.9822C2.70226 18.9562 3.02811 18.9431 3.30835 18.9431ZM3.40611 20.2433C3.29532 20.2433 3.18452 20.2466 3.07373 20.2531C2.96946 20.2596 2.87822 20.2661 2.80001 20.2726V22.2278H3.27902C3.80691 22.2278 4.20446 22.1561 4.47166 22.0127C4.73886 21.8693 4.87246 21.6021 4.87246 21.2111C4.87246 21.0221 4.83662 20.8657 4.76493 20.7419C4.69976 20.618 4.602 20.5203 4.47166 20.4486C4.34783 20.3704 4.19468 20.3183 4.0122 20.2922C3.82972 20.2596 3.62769 20.2433 3.40611 20.2433ZM12.0923 24.486V25.7959H7.5662V19.0213H9.09121V24.486H12.0923ZM17.916 25.7959C17.8443 25.5613 17.7628 25.3201 17.6716 25.0725C17.5869 24.8248 17.5021 24.5772 17.4174 24.3295H14.778C14.6933 24.5772 14.6053 24.8248 14.514 25.0725C14.4293 25.3201 14.3511 25.5613 14.2794 25.7959H12.6958C12.9499 25.066 13.1911 24.3915 13.4192 23.7723C13.6473 23.1532 13.8688 22.5699 14.0839 22.0225C14.3055 21.475 14.5206 20.9569 14.7291 20.4681C14.9442 19.9728 15.1658 19.4906 15.3939 19.0213H16.8504C17.072 19.4906 17.2903 19.9728 17.5054 20.4681C17.7205 20.9569 17.9355 21.475 18.1506 22.0225C18.3722 22.5699 18.597 23.1532 18.8251 23.7723C19.0532 24.3915 19.2944 25.066 19.5485 25.7959H17.916ZM16.0879 20.5561C16.0553 20.6539 16.0065 20.7875 15.9413 20.9569C15.8761 21.1264 15.8012 21.3219 15.7165 21.5435C15.6317 21.7651 15.5372 22.0094 15.433 22.2766C15.3352 22.5439 15.2342 22.8241 15.1299 23.1174H17.0557C16.9515 22.8241 16.8504 22.5439 16.7527 22.2766C16.6549 22.0094 16.5604 21.7651 16.4692 21.5435C16.3845 21.3219 16.3095 21.1264 16.2443 20.9569C16.1792 20.7875 16.127 20.6539 16.0879 20.5561ZM24.9711 25.7959C24.5345 25.0204 24.062 24.2546 23.5537 23.4986C23.0453 22.7426 22.5044 22.029 21.9309 21.3577V25.7959H20.4254V19.0213H21.6669C21.882 19.2364 22.1199 19.5004 22.3806 19.8132C22.6413 20.126 22.9052 20.4616 23.1724 20.8201C23.4461 21.172 23.7166 21.5402 23.9838 21.9247C24.251 22.3027 24.5019 22.6677 24.7365 23.0196V19.0213H26.2518V25.7959H24.9711ZM27.8145 25.7959V19.0213H32.3895V20.302H29.3395V21.6315H32.0474V22.8827H29.3395V24.5153H32.6144V25.7959H27.8145ZM38.7676 19.0213V20.3215H36.7245V25.7959H35.1995V20.3215H33.1564V19.0213H38.7676ZM43.4817 25.7959C43.41 25.5613 43.3286 25.3201 43.2373 25.0725C43.1526 24.8248 43.0679 24.5772 42.9832 24.3295H40.3437C40.259 24.5772 40.171 24.8248 40.0798 25.0725C39.9951 25.3201 39.9168 25.5613 39.8452 25.7959H38.2615C38.5157 25.066 38.7568 24.3915 38.9849 23.7723C39.213 23.1532 39.4346 22.5699 39.6496 22.0225C39.8712 21.475 40.0863 20.9569 40.2948 20.4681C40.5099 19.9728 40.7315 19.4906 40.9596 19.0213H42.4162C42.6377 19.4906 42.8561 19.9728 43.0711 20.4681C43.2862 20.9569 43.5013 21.475 43.7163 22.0225C43.9379 22.5699 44.1628 23.1532 44.3909 23.7723C44.619 24.3915 44.8601 25.066 45.1143 25.7959H43.4817ZM41.6537 20.5561C41.6211 20.6539 41.5722 20.7875 41.507 20.9569C41.4419 21.1264 41.3669 21.3219 41.2822 21.5435C41.1975 21.7651 41.103 22.0094 40.9987 22.2766C40.9009 22.5439 40.7999 22.8241 40.6956 23.1174H42.6215C42.5172 22.8241 42.4162 22.5439 42.3184 22.2766C42.2207 22.0094 42.1262 21.7651 42.0349 21.5435C41.9502 21.3219 41.8752 21.1264 41.8101 20.9569C41.7449 20.7875 41.6928 20.6539 41.6537 20.5561ZM47.9756 18.9431C48.9923 18.9431 49.7711 19.1256 50.312 19.4906C50.8529 19.849 51.1234 20.4095 51.1234 21.172C51.1234 21.6477 51.0126 22.0355 50.791 22.3353C50.576 22.6286 50.2631 22.8599 49.8526 23.0294C49.9894 23.1988 50.1328 23.3943 50.2827 23.6159C50.4326 23.831 50.5792 24.0591 50.7226 24.3002C50.8725 24.5348 51.0159 24.7825 51.1527 25.0432C51.2896 25.2973 51.4167 25.5482 51.534 25.7959H49.8232C49.6994 25.5743 49.5723 25.3495 49.442 25.1214C49.3182 24.8933 49.1878 24.6717 49.051 24.4566C48.9206 24.2416 48.7903 24.0395 48.6599 23.8505C48.5296 23.655 48.3992 23.4791 48.2689 23.3226H47.5162V25.7959H45.9912V19.1191C46.3235 19.0539 46.6657 19.0083 47.0176 18.9822C47.3761 18.9562 47.6954 18.9431 47.9756 18.9431ZM48.0636 20.2433C47.9528 20.2433 47.8518 20.2466 47.7606 20.2531C47.6758 20.2596 47.5944 20.2661 47.5162 20.2726V22.1105H47.9463C48.5198 22.1105 48.9304 22.0388 49.178 21.8954C49.4257 21.752 49.5495 21.5076 49.5495 21.1622C49.5495 20.8298 49.4224 20.5952 49.1683 20.4584C48.9206 20.315 48.5524 20.2433 48.0636 20.2433ZM52.5115 19.0213H54.0365V25.7959H52.5115V19.0213ZM58.2538 25.9328C57.778 25.9328 57.3675 25.8676 57.022 25.7372C56.6766 25.6004 56.3899 25.4146 56.1618 25.18C55.9402 24.9389 55.774 24.6554 55.6632 24.3295C55.5589 23.9972 55.5068 23.6322 55.5068 23.2347V19.0213H57.0318V23.1076C57.0318 23.3813 57.0611 23.6159 57.1198 23.8114C57.185 24.0004 57.2697 24.1568 57.374 24.2807C57.4848 24.398 57.6151 24.4827 57.765 24.5348C57.9214 24.587 58.0909 24.613 58.2733 24.613C58.6448 24.613 58.9446 24.499 59.1727 24.2709C59.4073 24.0428 59.5246 23.655 59.5246 23.1076V19.0213H61.0496V23.2347C61.0496 23.6322 60.9942 23.9972 60.8834 24.3295C60.7727 24.6619 60.6032 24.9487 60.3751 25.1898C60.147 25.4244 59.857 25.6069 59.5051 25.7372C59.1531 25.8676 58.736 25.9328 58.2538 25.9328ZM64.315 19.0213C64.4323 19.2364 64.5659 19.5036 64.7158 19.8229C64.8722 20.1358 65.0319 20.4779 65.1948 20.8494C65.3643 21.2144 65.5305 21.5891 65.6934 21.9736C65.8563 22.3581 66.0095 22.7198 66.1528 23.0587C66.2962 22.7198 66.4494 22.3581 66.6123 21.9736C66.7752 21.5891 66.9382 21.2144 67.1011 20.8494C67.2705 20.4779 67.4302 20.1358 67.5801 19.8229C67.7365 19.5036 67.8734 19.2364 67.9907 19.0213H69.3788C69.444 19.471 69.5027 19.9761 69.5548 20.5366C69.6134 21.0905 69.6623 21.6706 69.7014 22.2766C69.747 22.8762 69.7861 23.4791 69.8187 24.0852C69.8578 24.6912 69.8904 25.2615 69.9165 25.7959H68.4306C68.411 25.1377 68.385 24.4208 68.3524 23.6452C68.3198 22.8697 68.2709 22.0877 68.2057 21.2991C68.0884 21.5728 67.9581 21.8758 67.8147 22.2082C67.6713 22.5406 67.528 22.873 67.3846 23.2053C67.2477 23.5377 67.1141 23.8571 66.9838 24.1634C66.8534 24.4631 66.7426 24.7206 66.6514 24.9356H65.5859C65.4946 24.7206 65.3838 24.4631 65.2535 24.1634C65.1231 23.8571 64.9863 23.5377 64.8429 23.2053C64.706 22.873 64.5659 22.5406 64.4225 22.2082C64.2792 21.8758 64.1488 21.5728 64.0315 21.2991C63.9664 22.0877 63.9175 22.8697 63.8849 23.6452C63.8523 24.4208 63.8262 25.1377 63.8067 25.7959H62.3208C62.3468 25.2615 62.3762 24.6912 62.4088 24.0852C62.4479 23.4791 62.487 22.8762 62.5261 22.2766C62.5717 21.6706 62.6206 21.0905 62.6727 20.5366C62.7314 19.9761 62.7933 19.471 62.8584 19.0213H64.315Z" fill="white"/>
<path d="M17.4375 28.9309C18.42 31.3029 19.8601 33.4582 21.6756 35.2737C23.4911 37.0891 25.6463 38.5293 28.0183 39.5118C30.3904 40.4943 32.9327 41 35.5001 41C38.0676 41 40.6099 40.4943 42.9819 39.5118C45.3539 38.5293 47.5092 37.0892 49.3247 35.2737C51.1401 33.4582 52.5803 31.303 53.5628 28.9309" stroke="white" stroke-width="3.49568" stroke-miterlimit="16" stroke-linecap="round" stroke-linejoin="round"/>
<path d="M17.4375 14.7073C18.42 12.3352 19.8601 10.18 21.6756 8.3645C23.4911 6.54903 25.6463 5.10893 28.0183 4.1264C30.3904 3.14388 32.9327 2.63818 35.5001 2.63818C38.0676 2.63818 40.6099 3.14388 42.9819 4.1264C45.3539 5.10893 47.5092 6.54903 49.3247 8.3645C51.1401 10.18 52.5803 12.3352 53.5628 14.7073" stroke="white" stroke-width="3.49568" stroke-miterlimit="16" stroke-linecap="round" stroke-linejoin="round"/>
</svg>
